<?xml version="1.0" standalone="no"?>
<!DOCTYPE svg PUBLIC "-//W3C//DTD SVG 20010904//EN"
 "http://www.w3.org/TR/2001/REC-SVG-20010904/DTD/svg10.dtd">
<svg version="1.0" xmlns="http://www.w3.org/2000/svg"
 width="260.000000pt" height="260.000000pt" viewBox="0 0 260.000000 260.000000"
 preserveAspectRatio="xMidYMid meet">
<metadata>
Created by potrace 1.14, written by Peter Selinger 2001-2017
</metadata>
<g transform="translate(0.000000,260.000000) scale(0.100000,-0.100000)"
fill="#000000" stroke="none">
<path d="M193 2579 c-64 -25 -137 -93 -166 -157 l-22 -47 0 -1075 0 -1075 28
-57 c33 -67 93 -121 167 -149 48 -18 88 -19 1100 -19 1012 0 1052 1 1100 19
74 28 134 82 167 149 l28 57 0 1075 0 1075 -22 47 c-30 66 -102 132 -169 157
-54 21 -68 21 -1107 20 -1028 0 -1053 0 -1104 -20z m1197 -379 c0 -68 1 -70
28 -75 154 -33 231 -62 334 -128 181 -117 323 -326 362 -537 l12 -65 72 -3 72
-3 0 -89 0 -89 -72 -3 -73 -3 -7 -51 c-19 -135 -112 -316 -221 -431 -99 -104
-280 -207 -412 -233 -102 -20 -95 -13 -95 -91 l0 -69 -90 0 -90 0 0 70 c0 68
-1 70 -27 76 -248 54 -391 136 -529 302 -86 103 -163 279 -176 397 -3 30 -3
30 -75 33 l-73 3 0 89 0 90 70 0 c64 0 70 2 74 23 46 224 119 363 258 492 132
123 248 179 456 221 20 4 22 10 22 74 l0 70 90 0 90 0 0 -70z"/>
<path d="M1198 1940 c-244 -44 -433 -208 -514 -445 -23 -67 -27 -97 -27 -185
0 -188 61 -338 188 -465 318 -318 851 -220 1040 190 43 92 58 161 58 260 0
112 -18 186 -68 290 -103 214 -307 348 -547 360 -46 2 -104 0 -130 -5z m241
-326 c107 -48 179 -142 200 -260 43 -237 -187 -449 -421 -389 -107 27 -181 89
-231 194 -37 78 -42 176 -13 259 19 56 94 147 150 181 88 55 215 61 315 15z"/>
</g>
</svg>
